<?xml version="1.0" encoding="utf-8"?>
<!-- Generator: Adobe Illustrator 28.2.0, SVG Export Plug-In . SVG Version: 6.00 Build 0)  -->
<svg version="1.1" id="Ebene_1" xmlns="http://www.w3.org/2000/svg" xmlns:xlink="http://www.w3.org/1999/xlink" x="0px" y="0px"
	 viewBox="0 0 595.3 841.9" style="enable-background:new 0 0 595.3 841.9;" xml:space="preserve">
<style type="text/css">
	.st0{fill:#FFFFFF;}
</style>
<g>
	<path class="st0" d="M227.4,324.9c-18.2,0.5-30.4,18.5-24,35.8c9,24,18.2,48,27.4,72c19,49.9,38,99.9,57.1,149.8
		c5.7,14.8,19.6,21.9,33.5,17c8.7-3,13.9-9.3,16.5-18c8.7-29.2,17.6-58.5,26.2-87.7c0.9-3.2,2.4-4.9,5.7-5.9
		c29.3-8.6,58.5-17.4,87.7-26.2c11.7-3.5,19.3-12.8,19.7-24c0.4-11.7-6.1-21.2-17.6-25.6c-74.1-28.3-148.3-56.5-222.4-84.7
		C234.1,326.2,230.7,325.7,227.4,324.9z"/>
	<path class="st0" d="M273.5,287.9c0.4,6.3,2.6,10.1,7.2,12.3c4.5,2.1,9,1.6,12.5-1.8c12.5-12.2,24.8-24.5,37-37
		c4.4-4.6,3.9-11.8-0.5-16.2c-4.4-4.4-11.7-5-16.2-0.5c-12.4,12.1-24.6,24.4-36.7,36.8C275,283.3,274.3,286.4,273.5,287.9z"/>
	<path class="st0" d="M131.6,241.5c-6.6,0.5-10.5,2.6-12.5,7.4c-2.1,4.8-1.3,9.4,2.4,13.1c6.5,6.7,13.2,13.3,19.8,19.9
		c5.1,5.1,10.2,10.3,15.3,15.3c5.5,5.4,12.7,5.5,17.6,0.5c4.8-5,4.6-12-0.7-17.4c-11.5-11.6-23-23.2-34.7-34.6
		C136.5,243.5,133.2,242.4,131.6,241.5z"/>
	<path class="st0" d="M164.2,397.2c-1.6,0.9-4.9,1.8-7.1,3.9c-12,11.6-23.8,23.5-35.5,35.4c-5,5-4.9,12.4-0.1,17.1
		c4.8,4.8,11.9,4.7,17-0.3c11.8-11.7,23.5-23.4,35.2-35.2c3.8-3.8,4.9-8.4,2.8-13.4C174.6,400,170.7,397.8,164.2,397.2z"/>
	<path class="st0" d="M213.6,266c0,3.9-0.1,7.7,0,11.6c0.2,6.7,5.5,11.8,12,11.8c6.5,0,11.8-5.2,11.9-11.9c0.1-7.7,0.1-15.4,0-23.2
		c-0.1-6.8-5.3-11.9-11.8-12c-6.6-0.1-12,5.2-12.1,12.1C213.6,258.3,213.6,262.1,213.6,266z"/>
	<path class="st0" d="M142.2,337.4c-3.7,0-7.5-0.1-11.2,0c-7,0.1-12.3,5.2-12.4,11.9c-0.1,6.6,5.2,12,12.1,12.1
		c7.6,0.1,15.2,0.1,22.8,0c6.9-0.1,12.2-5.4,12.1-12c0-6.7-5.3-11.8-12.3-11.9C149.7,337.3,145.9,337.3,142.2,337.4z"/>
</g>
</svg>
