<?xml version="1.0" encoding="utf-8"?>
<!-- Generator: Adobe Illustrator 28.2.0, SVG Export Plug-In . SVG Version: 6.00 Build 0)  -->
<svg version="1.1" id="Ebene_1" xmlns="http://www.w3.org/2000/svg" xmlns:xlink="http://www.w3.org/1999/xlink" x="0px" y="0px"
	 viewBox="0 0 595.3 841.9" style="enable-background:new 0 0 595.3 841.9;" xml:space="preserve">
<style type="text/css">
	.st0{opacity:0.5;}
	.st1{fill:#FFFFFF;}
</style>
<g>
	<g>
		<g>
			<g class="st0">
				<g>
					<path class="st1" d="M337.4,250.4H200c-41.5,0-75.2,33.7-75.2,75.2v137.4c0,41.5,33.7,75.2,75.2,75.2h137.4
						c41.5,0,75.2-33.7,75.2-75.2V325.6C412.6,284.1,378.9,250.4,337.4,250.4z M337.4,532.5H200c-38.3,0-69.5-31.2-69.5-69.5V325.6
						c0-38.3,31.2-69.5,69.5-69.5h137.4c38.3,0,69.5,31.2,69.5,69.5v137.4C406.9,501.4,375.7,532.5,337.4,532.5z"/>
				</g>
			</g>
			<path class="st1" d="M324.8,434.6c-11,0.3-18.4,11.2-14.5,21.7c5.5,14.6,11.1,29.1,16.6,43.6c11.5,30.2,23,60.5,34.5,90.7
				c3.4,9,11.8,13.3,20.3,10.3c5.2-1.8,8.4-5.6,10-10.9c5.3-17.7,10.6-35.4,15.9-53.1c0.6-1.9,1.4-3,3.5-3.6
				c17.7-5.2,35.4-10.6,53.1-15.9c7.1-2.1,11.7-7.7,11.9-14.6c0.2-7.1-3.7-12.8-10.7-15.5c-44.9-17.1-89.8-34.2-134.7-51.3
				C328.8,435.4,326.7,435.1,324.8,434.6"/>
			<path class="st1" d="M352.7,412.2c0.3,3.8,1.5,6.1,4.4,7.5c2.7,1.3,5.5,1,7.6-1.1c7.6-7.4,15-14.8,22.4-22.4
				c2.7-2.8,2.4-7.1-0.3-9.8s-7.1-3-9.8-0.3c-7.5,7.3-14.9,14.8-22.2,22.3C353.5,409.4,353.1,411.3,352.7,412.2"/>
			<path class="st1" d="M266.7,384.1c-4,0.3-6.4,1.6-7.6,4.5c-1.2,2.9-0.8,5.7,1.4,8c3.9,4.1,8,8,12,12c3.1,3.1,6.2,6.2,9.3,9.3
				c3.3,3.3,7.7,3.4,10.7,0.3c2.9-3,2.8-7.3-0.4-10.5c-7-7-13.9-14-21-20.9C269.7,385.3,267.7,384.6,266.7,384.1"/>
			<path class="st1" d="M286.5,478.4c-1,0.5-3,1.1-4.3,2.4c-7.3,7-14.4,14.2-21.5,21.4c-3,3.1-2.9,7.5,0,10.4
				c2.9,2.9,7.2,2.9,10.3-0.2c7.1-7.1,14.2-14.2,21.3-21.3c2.3-2.3,2.9-5.1,1.7-8.1C292.8,480.1,290.4,478.7,286.5,478.4"/>
			<path class="st1" d="M316.4,398.9c0,2.3-0.1,4.7,0,7c0.1,4.1,3.3,7.2,7.2,7.2c3.9,0,7.1-3.1,7.2-7.2c0.1-4.7,0.1-9.4,0-14
				c-0.1-4.1-3.2-7.2-7.1-7.3c-4-0.1-7.2,3.1-7.3,7.3C316.4,394.3,316.4,396.6,316.4,398.9"/>
			<path class="st1" d="M273.2,442.1c-2.3,0-4.5,0-6.8,0c-4.2,0.1-7.5,3.2-7.5,7.2c0,4,3.2,7.2,7.4,7.3c4.6,0.1,9.2,0.1,13.8,0
				c4.2-0.1,7.4-3.3,7.4-7.3c0-4.1-3.2-7.1-7.5-7.2C277.7,442.1,275.4,442.1,273.2,442.1"/>
		</g>
	</g>
</g>
</svg>
