<?xml version="1.0" encoding="utf-8"?>
<!-- Generator: Adobe Illustrator 28.2.0, SVG Export Plug-In . SVG Version: 6.00 Build 0)  -->
<svg version="1.1" id="Ebene_1" xmlns="http://www.w3.org/2000/svg" xmlns:xlink="http://www.w3.org/1999/xlink" x="0px" y="0px"
	 viewBox="0 0 326.1 30.4" style="enable-background:new 0 0 326.1 30.4;" xml:space="preserve">
<style type="text/css">
	.st0{fill:#FFFFFF;}
</style>
<g>
	<g>
		<path class="st0" d="M313.5,30.4c8.5,0,12.6-4.2,12.6-9.1c0-10.8-17.3-7.1-17.3-12.5c0-1.8,1.6-3.4,5.6-3.4c2.6,0,5.5,0.8,8.2,2.3
			l2.1-5.2c-2.8-1.7-6.6-2.6-10.3-2.6C306.1,0,302,4.2,302,9.2c0,10.9,17.3,7.1,17.3,12.6c0,1.8-1.7,3.1-5.7,3.1
			c-3.6,0-7.3-1.3-9.8-3.1l-2.3,5.1C304,29,308.8,30.4,313.5,30.4 M283.3,30.4c5.2,0,9.5-1.8,12.3-5.2l-4.4-4
			c-2,2.3-4.5,3.5-7.5,3.5c-5.6,0-9.5-3.9-9.5-9.4s3.9-9.4,9.5-9.4c3,0,5.5,1.2,7.5,3.4l4.4-4c-2.8-3.4-7.1-5.2-12.2-5.2
			c-9.2,0-16.1,6.3-16.1,15.2S274.1,30.4,283.3,30.4 M251.4,29.9h6.9V0.5h-6.9V29.9z M227.5,29.9h6.9V6h9.5V0.5H218V6h9.5V29.9z
			 M215.2,0.5h-6.7l-7.9,13.1l-7.9-13.1h-7.3l11.5,18.9v10.5h6.9V19.5L215.2,0.5z M163,29.9h21.8v-5.5h-14.9V0.5H163V29.9z
			 M134.7,18.4l4.7-11.3l4.7,11.3H134.7z M148.9,29.9h7.2L142.8,0.5H136l-13.2,29.4h7l2.6-6.3h13.8L148.9,29.9z M109,0.5v17.8
			L94.3,0.5h-5.7v29.4h6.8V12.1l14.8,17.9h5.6V0.5H109z M60.3,18.4L65,7.2l4.7,11.3H60.3z M74.5,29.9h7.2L68.4,0.5h-6.8L48.4,29.9h7
			l2.6-6.3h13.8L74.5,29.9z"/>
	</g>
	<rect x="33.5" y="23.8" class="st0" width="6.1" height="6.1"/>
	<rect y="23.8" class="st0" width="24.4" height="6.1"/>
	<rect y="12.1" class="st0" width="18.3" height="6.1"/>
	<rect y="0.5" class="st0" width="24.4" height="6.1"/>
</g>
</svg>
