<?xml version="1.0" encoding="utf-8"?>
<!-- Generator: Adobe Illustrator 28.2.0, SVG Export Plug-In . SVG Version: 6.00 Build 0)  -->
<svg version="1.1" id="Ebene_1" xmlns="http://www.w3.org/2000/svg" xmlns:xlink="http://www.w3.org/1999/xlink" x="0px" y="0px"
	 viewBox="0 0 640.9 93.4" style="enable-background:new 0 0 640.9 93.4;" xml:space="preserve">
<style type="text/css">
	.st0{fill:#FFFFFF;}
</style>
<polygon class="st0" points="597.4,93.3 618.2,93.3 580.6,0.2 562.5,0.2 524.9,93.3 545.7,93.3 571.6,29.3 597.4,93.3 "/>
<path class="st0" d="M496.9,50.1c4-5.3,6-12,6-19.8c0-5.5-1.3-10.3-4-14.2c-2.5-3.8-5.7-6.9-9.5-9.3c-3.7-2.3-7.7-4.1-11.9-5.1
	c-4.1-1-8-1.6-11.4-1.6h-38.1l0,93.3h19.3V61.8H464l14.9,31.6h21L484,59.5C489.4,57.5,493.7,54.4,496.9,50.1L496.9,50.1z
	 M483.5,30.3c0,1.3-0.3,2.8-0.8,4.3c-0.5,1.4-1.2,2.6-2.4,3.7c-1.2,1.2-2.9,2.2-5,3.1c-2.2,0.9-5.1,1.3-8.6,1.3h-19.4V18.8h19.6
	c2.4,0,4.8,0.4,6.9,1.1c2.1,0.7,3.9,1.6,5.3,2.7c1.4,1.1,2.5,2.4,3.4,3.8C483.2,27.7,483.5,28.9,483.5,30.3L483.5,30.3z"/>
<polygon class="st0" points="351.8,18.8 400.2,18.8 400.2,0.1 332.4,0.1 332.5,93.4 351.8,93.4 351.8,61.6 390.9,61.6 390.9,42.9 
	351.8,42.9 351.8,18.8 "/>
<polygon class="st0" points="276.4,93.3 293.7,93.3 293.7,0.2 274.4,0.2 274.4,59.5 228.1,0.2 210.8,0.2 210.8,93.3 230.1,93.3 
	230.1,34.1 276.4,93.3 "/>
<polygon class="st0" points="152.9,93.3 172.2,93.3 172.2,0.2 152.9,0.2 152.9,93.3 "/>
<polygon class="st0" points="106.5,93.2 125.8,93.2 125.8,73.9 106.5,73.9 106.5,93.2 "/>
<polygon class="st0" points="0,93.2 77.4,93.2 77.4,73.9 0,73.9 0,93.2 "/>
<polygon class="st0" points="58.1,36.9 0,36.9 0,56.3 58.1,56.3 58.1,36.9 "/>
<polygon class="st0" points="0,19.4 77.4,19.4 77.4,0 0,0 0,19.4 "/>
<g>
	<path class="st0" d="M640.9,11.4c0,6.4-5,11.4-11.3,11.4c-6.4,0-11.3-5-11.3-11.3s4.9-11.3,11.3-11.3S640.9,5,640.9,11.4z
		 M639.1,11.4c0-5.4-4-9.5-9.4-9.5c-5.5,0-9.5,4.2-9.5,9.5s4,9.5,9.4,9.5C635,21,639.1,16.8,639.1,11.4z M632.7,13.2l2.5,3.9h-2.5
		l-2.2-3.4h-0.3h-2.2v3.4h-2.5V5.8h4.7c3,0,4.8,1.6,4.8,3.9C634.9,11.4,634.1,12.6,632.7,13.2z M630,11.7c1.6,0,2.5-0.7,2.5-2
		c0-1.3-0.9-2-2.5-2h-2.1v4H630z"/>
</g>
</svg>
